<svg xmlns="http://www.w3.org/2000/svg" width="30" height="30" fill="none" viewBox="0 0 40 40">
  <path fill="silver" d="M20.043 3.333a16.625 16.625 0 0 0-5.255 32.399c.834.15 1.132-.362 1.132-.802 0-.395-.013-1.442-.018-2.833-4.625 1-5.602-2.23-5.602-2.23a4.392 4.392 0 0 0-1.845-2.432c-1.5-1.032.115-1.008.115-1.008a3.482 3.482 0 0 1 2.545 1.713 3.54 3.54 0 0 0 4.833 1.382 3.563 3.563 0 0 1 1.059-2.224c-3.69-.418-7.57-1.845-7.57-8.216a6.442 6.442 0 0 1 1.71-4.452 5.98 5.98 0 0 1 .166-4.4s1.395-.448 4.57 1.702a15.73 15.73 0 0 1 8.32 0c3.177-2.152 4.57-1.702 4.57-1.702a5.952 5.952 0 0 1 .167 4.4 6.4 6.4 0 0 1 1.707 4.458c0 6.389-3.884 7.792-7.587 8.204a3.983 3.983 0 0 1 1.125 3.076c0 2.224-.02 4.017-.02 4.562 0 .445.297.962 1.145.798a16.625 16.625 0 0 0-5.267-32.395Z"/>
</svg>
