<svg xmlns="http://www.w3.org/2000/svg" width="600" height="438.46" fill="none" viewBox="0 0 542 400">
  <g clip-path="url(#a)">
    <path fill="#F2F2F2" d="M220.765 216.891a4.083 4.083 0 0 1-2.394-.643 4.166 4.166 0 0 1-1.597-1.917 4.233 4.233 0 0 1-.225-2.499 4.186 4.186 0 0 1 1.23-2.178l.282-1.138-.112-.273c-3.794-9.166-16.65-9.103-20.411.077-3.338 8.148-7.588 16.309-8.635 24.924a33.61 33.61 0 0 0 .575 11.409 134.487 134.487 0 0 1-11.938-55.237c-.002-4.785.26-9.566.785-14.321a135.166 135.166 0 0 1 1.806-11.61c4.203-20.849 13.226-40.391 26.328-57.02 6.341-3.506 11.469-8.898 14.694-15.45a27.589 27.589 0 0 0 2.451-7.463c-.716.095-2.698-10.945-2.158-11.622-.997-1.533-2.781-2.295-3.87-3.791-5.415-7.44-12.875-6.14-16.77 3.97-8.32 4.254-8.4 11.311-3.295 18.099 3.248 4.317 3.694 10.16 6.544 14.783-.294.38-.599.749-.892 1.129a135.732 135.732 0 0 0-13.946 22.39c1.108-8.77-.528-19.335-3.316-26.145-3.174-7.76-9.123-14.295-14.363-21.003-6.293-8.058-19.197-4.541-20.306 5.673l-.031.297c.778.444 1.54.917 2.285 1.416a5.646 5.646 0 0 1 2.081 2.599 5.736 5.736 0 0 1 .271 3.336 5.684 5.684 0 0 1-1.636 2.907 5.557 5.557 0 0 1-2.969 1.465l-.114.018a57.096 57.096 0 0 0 1.465 8.426c-6.721 26.34 7.79 35.934 28.509 36.365.457.238.903.475 1.36.701a139.806 139.806 0 0 0-7.341 35.011c-.532 7.046-.5 14.124.094 21.165l-.035-.249c-1.501-7.83-5.623-14.895-11.669-20.001-8.979-7.475-21.666-10.228-31.353-16.237-4.663-2.892-10.639.846-9.825 6.325l.04.262a37.386 37.386 0 0 1 4.21 2.056c.778.445 1.54.917 2.285 1.416a5.647 5.647 0 0 1 2.081 2.599 5.738 5.738 0 0 1 .271 3.336 5.685 5.685 0 0 1-1.636 2.908 5.55 5.55 0 0 1-2.969 1.464l-.114.018-.235.036a56.511 56.511 0 0 0 10.238 16.245c4.202 22.995 22.253 25.176 41.561 18.48h.011a139.47 139.47 0 0 0 9.159 27.096h32.719c.117-.369.223-.749.328-1.117a36.685 36.685 0 0 1-9.053-.547c2.427-3.018 4.855-6.061 7.282-9.079.055-.057.105-.116.153-.179 1.231-1.544 2.474-3.078 3.706-4.622v-.002c.066-4.736-.47-9.46-1.595-14.057l-.001-.001Zm114.908 16.772a1.763 1.763 0 0 1-1.037-.279 1.8 1.8 0 0 1-.693-.831 1.833 1.833 0 0 1 .436-2.027l.122-.493a4.837 4.837 0 0 0-1.824-2.28 4.744 4.744 0 0 0-5.313.02 4.843 4.843 0 0 0-1.759 2.175c-1.447 3.531-3.289 7.069-3.743 10.803-.2 1.651-.115 3.324.249 4.945a58.297 58.297 0 0 1-5.174-23.943 56.446 56.446 0 0 1 .34-6.207c.188-1.69.449-3.367.783-5.033a58.672 58.672 0 0 1 11.412-24.715 15.43 15.43 0 0 0 6.369-6.697c.506-1.021.864-2.11 1.062-3.235-.31.041-1.169-4.744-.935-5.038-.432-.665-1.205-.995-1.677-1.643-2.347-3.225-5.581-2.662-7.269 1.72-3.607 1.845-3.642 4.904-1.429 7.846 1.408 1.871 1.602 4.404 2.837 6.408-.127.165-.259.324-.387.489a58.868 58.868 0 0 0-6.045 9.705 24.706 24.706 0 0 0-1.437-11.333c-1.376-3.363-3.955-6.196-6.226-9.104-2.728-3.492-8.321-1.968-8.802 2.459l-.013.129c.337.193.667.398.99.614.406.275.721.667.902 1.126.182.459.223.963.118 1.446a2.468 2.468 0 0 1-.709 1.261 2.416 2.416 0 0 1-1.288.635l-.049.007c.12 1.232.333 2.453.635 3.653-2.913 11.417 3.377 15.576 12.358 15.763.198.103.391.206.589.303a60.616 60.616 0 0 0-3.182 15.176 57.593 57.593 0 0 0 .041 9.175l-.015-.109a15.054 15.054 0 0 0-5.058-8.669c-3.892-3.24-9.391-4.434-13.59-7.038a2.768 2.768 0 0 0-1.496-.447 2.755 2.755 0 0 0-1.497.44 2.84 2.84 0 0 0-1.266 2.748l.017.114a16.11 16.11 0 0 1 2.816 1.505c.405.275.72.668.902 1.127.182.459.222.963.117 1.446a2.47 2.47 0 0 1-.709 1.26 2.416 2.416 0 0 1-1.287.635l-.05.008-.101.015a24.48 24.48 0 0 0 4.437 7.042c1.822 9.967 9.646 10.913 18.015 8.01h.005a60.5 60.5 0 0 0 3.97 11.745h14.183c.05-.16.096-.325.142-.484a15.93 15.93 0 0 1-3.924-.237c1.052-1.309 2.104-2.627 3.156-3.936a.688.688 0 0 0 .066-.077c.534-.67 1.073-1.334 1.607-2.004v-.001c.028-2.052-.204-4.1-.692-6.093Z"/>
    <path fill="#A0616A" d="M422.027 256.049a4.449 4.449 0 0 0 .746-3.226 4.41 4.41 0 0 0-1.686-2.84 4.136 4.136 0 0 0-.589-.362l1.948-29.972-9.909 1.741 2.209 30.492a4.447 4.447 0 0 0-.158 2.827 4.392 4.392 0 0 0 1.577 2.337 4.121 4.121 0 0 0 3.082.765 4.113 4.113 0 0 0 1.52-.56 4.174 4.174 0 0 0 1.26-1.202Zm61.964 136.191-6.638-.001-3.157-25.945h9.797l-.002 25.946Z"/>
    <path fill="#2F2E41" d="M484.225 399.257h-20.412v-.262c0-2.135.837-4.183 2.327-5.693a7.892 7.892 0 0 1 5.618-2.358l3.729-2.867 6.956 2.867h1.782v8.313Z"/>
    <path fill="#A0616A" d="m469.291 382.213-5.671 3.495-16.004-20.504 8.371-5.159 13.304 22.168Z"/>
    <path fill="#2F2E41" d="m473.089 388.085-17.439 10.749-.135-.223a8.153 8.153 0 0 1-.931-6.09 8.046 8.046 0 0 1 3.591-4.973l1.715-4.413 7.414-1.214 1.522-.938 4.263 7.102Z"/>
    <path fill="#E6E6E6" d="M380.614 32.142H.67a.666.666 0 0 1-.474-.199.684.684 0 0 1 0-.96.666.666 0 0 1 .474-.2h379.944c.178 0 .348.072.474.2a.682.682 0 0 1-.474 1.16Z"/>
    <path fill="#3F3D56" d="M302.126 124.645H77.666c-1.84 0-3.603.74-4.904 2.058a7.076 7.076 0 0 0-2.03 4.969c0 1.864.73 3.652 2.03 4.97a6.888 6.888 0 0 0 4.904 2.058h224.46c.91 0 1.812-.182 2.653-.535a6.93 6.93 0 0 0 2.25-1.523 7.037 7.037 0 0 0 1.503-2.28 7.104 7.104 0 0 0-1.503-7.659 6.93 6.93 0 0 0-2.25-1.523 6.856 6.856 0 0 0-2.653-.535ZM228.38 85.24h-69.594a6.89 6.89 0 0 0-4.904 2.059 7.078 7.078 0 0 0-2.031 4.969c0 1.864.731 3.651 2.031 4.97a6.89 6.89 0 0 0 4.904 2.058h69.594a6.89 6.89 0 0 0 4.904-2.059 7.078 7.078 0 0 0 2.031-4.97 7.078 7.078 0 0 0-2.031-4.968 6.89 6.89 0 0 0-4.904-2.059Z"/>
    <path fill="#E6E6E6" d="M19.68 11.747c3.131 0 5.67-2.63 5.67-5.874C25.35 2.63 22.81 0 19.68 0s-5.67 2.63-5.67 5.873c0 3.244 2.539 5.874 5.67 5.874Zm19.585 0c3.131 0 5.67-2.63 5.67-5.874C44.935 2.63 42.396 0 39.265 0s-5.67 2.63-5.67 5.873c0 3.244 2.539 5.874 5.67 5.874Zm19.585 0c3.131 0 5.67-2.63 5.67-5.874C64.52 2.63 61.982 0 58.85 0c-3.13 0-5.669 2.63-5.669 5.873 0 3.244 2.538 5.874 5.67 5.874Zm22.333-1.232a.66.66 0 0 1-.48-.204l-3.825-3.963a.684.684 0 0 1 0-.95l3.826-3.962a.666.666 0 0 1 .943-.006.684.684 0 0 1 .015.956l-3.367 3.487 3.367 3.488a.682.682 0 0 1 .139.739.678.678 0 0 1-.618.415Zm6.428 0a.665.665 0 0 1-.618-.415.688.688 0 0 1 .139-.739l3.366-3.488-3.366-3.487a.68.68 0 0 1-.143-.745.68.68 0 0 1 .37-.366.663.663 0 0 1 .731.16l3.825 3.963a.684.684 0 0 1 0 .95l-3.825 3.963a.667.667 0 0 1-.479.204ZM346.732.68h-7.113a1.45 1.45 0 0 0-1.038.436 1.484 1.484 0 0 0-.43 1.052v7.215a1.485 1.485 0 0 0 .906 1.375c.178.074.369.113.562.113h7.113c.39 0 .765-.156 1.041-.435a1.5 1.5 0 0 0 .434-1.053V2.168a1.5 1.5 0 0 0-.434-1.053 1.463 1.463 0 0 0-1.041-.435Zm-17.431 0h-7.113a1.454 1.454 0 0 0-1.038.436 1.502 1.502 0 0 0-.43 1.052v7.215a1.502 1.502 0 0 0 .43 1.052 1.465 1.465 0 0 0 1.038.436h7.113c.39 0 .765-.156 1.041-.435a1.5 1.5 0 0 0 .434-1.053V2.168a1.5 1.5 0 0 0-.434-1.053 1.463 1.463 0 0 0-1.041-.435Zm33.856.34h-7.113a1.45 1.45 0 0 0-1.038.435 1.502 1.502 0 0 0-.43 1.052v7.216a1.502 1.502 0 0 0 .43 1.052 1.464 1.464 0 0 0 1.038.435h7.113c.39 0 .765-.155 1.041-.435a1.5 1.5 0 0 0 .434-1.052V2.508a1.5 1.5 0 0 0-.434-1.053 1.463 1.463 0 0 0-1.041-.435ZM219.071 3.764h-56.858c-.474 0-.93.192-1.265.532a1.826 1.826 0 0 0 0 2.565c.335.34.791.531 1.265.531h56.858c.475 0 .93-.19 1.266-.531a1.83 1.83 0 0 0 0-2.565 1.779 1.779 0 0 0-1.266-.532Z"/>
    <path fill="#D8D6D6" d="M177.372 176.172h-56.315c-2.756 0-5.399 1.11-7.348 3.085a10.599 10.599 0 0 0-3.043 7.446 10.6 10.6 0 0 0 3.043 7.446 10.322 10.322 0 0 0 7.348 3.084h56.315c2.756 0 5.399-1.109 7.348-3.084a10.605 10.605 0 0 0 3.043-7.446c0-2.793-1.095-5.472-3.043-7.446a10.323 10.323 0 0 0-7.348-3.085Z"/>
    <path fill="#fff" d="M271.9 176.172h-56.315c-2.756 0-5.399 1.11-7.348 3.085a10.603 10.603 0 0 0-3.043 7.446c0 2.793 1.095 5.471 3.043 7.446a10.322 10.322 0 0 0 7.348 3.084H271.9c2.756 0 5.399-1.109 7.348-3.084a10.605 10.605 0 0 0 3.043-7.446c0-2.793-1.095-5.472-3.043-7.446a10.323 10.323 0 0 0-7.348-3.085Z"/>
    <path fill="#D8D6D6" d="M271.9 197.913h-56.315a10.987 10.987 0 0 1-7.822-3.284 11.287 11.287 0 0 1-3.24-7.926 11.29 11.29 0 0 1 3.24-7.927 10.99 10.99 0 0 1 7.822-3.283H271.9a10.99 10.99 0 0 1 7.822 3.283 11.29 11.29 0 0 1 3.24 7.927c0 2.973-1.166 5.824-3.24 7.926a10.987 10.987 0 0 1-7.822 3.284Zm-56.315-21.061a9.659 9.659 0 0 0-6.874 2.885 9.918 9.918 0 0 0-2.847 6.966 9.921 9.921 0 0 0 2.847 6.966 9.659 9.659 0 0 0 6.874 2.885H271.9a9.659 9.659 0 0 0 6.874-2.885 9.921 9.921 0 0 0 2.847-6.966 9.918 9.918 0 0 0-2.847-6.966 9.659 9.659 0 0 0-6.874-2.885h-56.315Z"/>
    <path fill="#E6E6E6" d="M380.614 247.684H.67a.664.664 0 0 1-.474-.199.683.683 0 0 1 0-.96.664.664 0 0 1 .474-.199h379.944c.178 0 .348.071.474.199.126.127.196.3.196.48s-.07.353-.196.48a.664.664 0 0 1-.474.199ZM16.09 131.333c3.703 0 6.704-3.042 6.704-6.794s-3.002-6.794-6.704-6.794c-3.703 0-6.704 3.042-6.704 6.794s3.001 6.794 6.704 6.794Zm323.139-47.557c3.702 0 6.704-3.042 6.704-6.794s-3.002-6.794-6.704-6.794c-3.703 0-6.704 3.042-6.704 6.794s3.001 6.794 6.704 6.794ZM79.109 224.409c3.702 0 6.704-3.042 6.704-6.794s-3.002-6.794-6.704-6.794c-3.703 0-6.704 3.042-6.704 6.794s3.001 6.794 6.704 6.794Z"/>
    <path fill="#3F3D56" d="M16.121 157.479c7.446-6.603 16.779-10.622 26.637-11.472a45.259 45.259 0 0 1 21.818 3.753 45.874 45.874 0 0 1 17.533 13.683c.792 1.02-.622 2.472-1.422 1.441-5.671-7.271-13.421-12.589-22.19-15.225a43.232 43.232 0 0 0-21.642-.665 43.575 43.575 0 0 0-19.311 9.926c-.969.863-2.396-.573-1.423-1.441Z"/>
    <path fill="#3F3D56" d="m92.747 155.37 5.928 16.43a1.038 1.038 0 0 1-.172.886 1.012 1.012 0 0 1-.797.404l-18.967-1.37c-1.283-.093-1.293-2.132 0-2.038l18.966 1.37-.97 1.29-5.927-16.43c-.446-1.234 1.497-1.766 1.939-.542Z"/>
    <path fill="#2F2E41" d="M482.697 243.432s5.487 11.048 3.352 16.305c-2.135 5.257 1.751 45.983-.465 47.789-2.216 1.806-3.643.361-.583 3.461 3.059 3.101 4.4-.296 3.73 4.46-.67 4.755-4.693 65.221-4.693 65.221l-9.181.232s-11.602-29.446-9.591-49.828l-11.484-56.129s-1.655 10.001-1.789 12.344c-.135 2.343-1.476 3.022-2.146 3.022-3.355 0-2.323-.604-1.832 2.755.491 3.36-5.515 30.25-5.515 30.25l20.085 47.163-6.704 6.794-34.741-51.496-6.66-52.354s-1.847-5.253 0-5.392c1.846-.14 2.892.454 2.369-1.541-.523-1.995 10.204-35.285 10.204-35.285l55.644 12.229Z"/>
    <path fill="#3F3D56" d="M486.049 244.79c-1.548 3.635-6.824.306-18.771 1.359a52.124 52.124 0 0 1-4.096.197c-8.012.088-15.5-1.454-21.561-1.909-4.364-.333-7.991-.102-10.546 1.712-6.704 4.756-9.359-9.96-9.359-9.96a18.812 18.812 0 0 1 2.655-11.101c3.352-5.435 6.785-18.35 2.012-23.099-4.774-4.749-5.283-12.222-3.352-14.267 1.93-2.045 8.272-42.937 7.374-49.595-.711-5.252 7.294-6.937 10.7-7.413a23.145 23.145 0 0 1 1.495-.169l7.917 1.467 11.397 2.038 9.178.177s.128.061.369.17a75.243 75.243 0 0 1 11.907 7.127c5.417 4.137 1.414 65.893 1.414 65.893s-.744 18.391 3.279 22.427c4.022 4.035-.463 11.312-2.012 14.946Z"/>
    <path fill="#3F3D56" d="m446.495 134.604-15.419.679s-20.783 42.122-18.102 44.84c2.682 2.718 5.422 1.175 2.041 4.664s-6.734 2.13-4.722 4.847c2.011 2.718 4.693-.34 2.011 3.567-2.682 3.907-.753 35.284-.753 35.284h10.604s7.497-26.359 6.868-29.548c-.629-3.188-.712-5.913 0-6.929.712-1.015 17.472-57.404 17.472-57.404Z"/>
    <path fill="#A0616A" d="M455.997 120.768c8.536 0 15.457-7.013 15.457-15.664 0-8.65-6.921-15.664-15.457-15.664-8.537 0-15.457 7.013-15.457 15.664s6.92 15.664 15.457 15.664Z"/>
    <path fill="#3F3D56" d="m468.042 118.594-6.128 1.189s5.699-9.321 5.364-13.588c-.335-4.266-4.921-5.795-4.921-5.795s-2.541.557-5.216.87a13.697 13.697 0 0 0-1.24-2.616 4.587 4.587 0 0 1-1.314 2.813 7.238 7.238 0 0 1-2.903-.34c-1.059-.489-1.039-1.338-.691-2.133a27.614 27.614 0 0 0-9.935 2.765 28.111 28.111 0 0 1 .235-6.25c.147-.041.295-.089.442-.136a13.58 13.58 0 0 0 2.628-1.162 4.5 4.5 0 0 1-2.48-1.182c.563-1.671 1.461-3.118 2.876-3.825a10.486 10.486 0 0 1 8.802-.238s-3.278-2.425-2.071-3.417c.08.081.16.156.248.23.114.096.241.198.362.293.744.611 1.857-.251 2.004-1.175.016-.117.038-.233.067-.347a3.253 3.253 0 0 1 .154-.51c2.233-.543 8.984 1.665 11.578 6.53 0 0 18.135 8.832 2.139 28.024Z"/>
    <path fill="#A0616A" d="M466.92 253.104a4.447 4.447 0 0 1 .784-3.217 4.342 4.342 0 0 1 2.776-1.752 4.05 4.05 0 0 1 .687-.05l11.723-27.588 8.042 6.119-15.658 26.134a4.419 4.419 0 0 1-1.128 2.591 4.317 4.317 0 0 1-2.454 1.353 4.116 4.116 0 0 1-1.617-.058 4.165 4.165 0 0 1-2.573-1.881 4.265 4.265 0 0 1-.582-1.651Z"/>
    <path fill="#3F3D56" d="m468.283 141.398 15.42.679s22.794 39.405 20.112 42.122c-2.681 2.718-5.421 1.175-2.04 4.664 3.381 3.489 6.733 2.13 4.722 4.848-2.011 2.717-4.693-.341-2.011 3.566 2.681 3.907-19.107 40.72-19.107 40.72l-9.386-4.756s9.134-24.322 9.763-27.51c.628-3.188.711-5.913 0-6.929-.712-1.015-17.473-57.404-17.473-57.404Z"/>
    <path fill="#32AABA" d="m471.461 134.397-21.614 50.607-8.742-54.29a23.145 23.145 0 0 1 1.495-.169l3.721-7.324 21.312 1.121 3.459 9.885s.128.061.369.17Zm-8.28 112.629c-8.011.088-15.499-1.454-21.56-1.91l7.556-38.371 14.004 40.281Z"/>
    <path fill="#CCC" d="M391.791 399.192a.92.92 0 0 0 .053.309.801.801 0 0 0 .153.263.69.69 0 0 0 .229.175.62.62 0 0 0 .27.061h149.987a.66.66 0 0 0 .498-.237.872.872 0 0 0 .207-.571.872.872 0 0 0-.207-.572.66.66 0 0 0-.498-.237H392.496a.62.62 0 0 0-.27.061.69.69 0 0 0-.229.175.812.812 0 0 0-.153.263.922.922 0 0 0-.053.31Z"/>
  </g>
  <defs>
    <clipPath id="a">
      <path fill="#fff" d="M0 0h542v400H0z"/>
    </clipPath>
  </defs>
</svg>
