<svg xmlns="http://www.w3.org/2000/svg" width="40" height="40" fill="none" viewBox="0 0 40 40">
  <path fill="silver" d="M20.003 35.068c-4.1 0-4.583-.021-6.183-.091a10.976 10.976 0 0 1-3.642-.75 7.699 7.699 0 0 1-4.383-4.385 10.985 10.985 0 0 1-.698-3.645c-.094-1.597-.094-2.12-.094-6.189 0-4.111.022-4.591.094-6.183.025-1.244.26-2.475.698-3.64a7.683 7.683 0 0 1 4.388-4.387 10.889 10.889 0 0 1 3.64-.7c1.592-.09 2.115-.09 6.18-.09 4.134 0 4.609.022 6.184.09 1.247.024 2.482.26 3.65.7a7.692 7.692 0 0 1 4.388 4.387c.445 1.182.683 2.432.702 3.695.093 1.597.093 2.118.093 6.185s-.023 4.6-.093 6.178a11.005 11.005 0 0 1-.7 3.649 7.707 7.707 0 0 1-4.39 4.386 11.022 11.022 0 0 1-3.644.699c-1.591.091-2.113.091-6.19.091Zm-.056-27.421c-4.077 0-4.5.02-6.092.091a8.32 8.32 0 0 0-2.782.519 4.982 4.982 0 0 0-2.865 2.853 8.358 8.358 0 0 0-.518 2.812c-.088 1.615-.088 2.038-.088 6.086 0 4 .015 4.485.088 6.09.015.95.19 1.892.518 2.784a4.985 4.985 0 0 0 2.865 2.851c.89.333 1.832.508 2.782.519 1.613.093 2.038.093 6.092.093 4.088 0 4.511-.02 6.09-.093a8.272 8.272 0 0 0 2.783-.519 5 5 0 0 0 2.85-2.848 8.403 8.403 0 0 0 .518-2.813h.019c.071-1.594.071-2.019.071-6.09 0-4.072-.018-4.5-.09-6.092a8.427 8.427 0 0 0-.518-2.78 5 5 0 0 0-2.85-2.853 8.238 8.238 0 0 0-2.783-.519c-1.612-.091-2.034-.091-6.09-.091Zm.056 20.06a7.705 7.705 0 1 1 7.7-7.707 7.715 7.715 0 0 1-7.7 7.707Zm0-12.71a5 5 0 1 0 5 5 5.012 5.012 0 0 0-5-5Zm8-1.189a1.797 1.797 0 1 1 .014-3.593 1.797 1.797 0 0 1-.014 3.593Z"/>
</svg>
