<svg xmlns="http://www.w3.org/2000/svg" width="30" height="30" fill="none" viewBox="0 0 40 40">
  <path fill="silver" d="M33.325 11.147A7.166 7.166 0 0 0 36.47 7.19a14.317 14.317 0 0 1-4.542 1.735 7.167 7.167 0 0 0-12.193 6.525 20.306 20.306 0 0 1-14.74-7.473 7.167 7.167 0 0 0 2.213 9.55 7.127 7.127 0 0 1-3.238-.897v.09c0 3.405 2.4 6.338 5.738 7.013a7.166 7.166 0 0 1-3.23.124 7.167 7.167 0 0 0 6.682 4.966 14.35 14.35 0 0 1-8.883 3.062c-.571 0-1.142-.032-1.709-.098A20.245 20.245 0 0 0 13.533 35a20.211 20.211 0 0 0 20.35-20.352c0-.31-.007-.618-.021-.925a14.532 14.532 0 0 0 3.57-3.703 14.3 14.3 0 0 1-4.107 1.127Z"/>
</svg>
