<svg xmlns="http://www.w3.org/2000/svg" width="32" height="30" fill="none" viewBox="0 0 47 48">
  <g clip-path="url(#a)" filter="url(#b)">
    <g filter="url(#c)">
      <path fill="#fff" d="M38.5 39.375h-30a3.75 3.75 0 0 1-3.75-3.75V9.375a3.75 3.75 0 0 1 3.75-3.75h30a3.75 3.75 0 0 1 3.75 3.75v26.25a3.75 3.75 0 0 1-3.75 3.75Zm-30-26.25v22.5h30v-22.5h-30Zm20.076 18.2-2.65-2.649 4.298-4.301-4.3-4.3 2.652-2.65 6.95 6.95-6.949 6.949-.001.002Zm-10.152 0-6.95-6.95 6.95-6.95 2.652 2.65-4.3 4.3 4.298 4.3-2.65 2.649v.002Z"/>
    </g>
  </g>
  <defs>
    <filter id="b" width="53" height="53" x="-3" y="0" color-interpolation-filters="sRGB" filterUnits="userSpaceOnUse">
      <feFlood flood-opacity="0" result="BackgroundImageFix"/>
      <feColorMatrix in="SourceAlpha" result="hardAlpha" values="0 0 0 0 0 0 0 0 0 0 0 0 0 0 0 0 0 0 127 0"/>
      <feOffset dy="4"/>
      <feGaussianBlur stdDeviation="2"/>
      <feComposite in2="hardAlpha" operator="out"/>
      <feColorMatrix values="0 0 0 0 1 0 0 0 0 1 0 0 0 0 1 0 0 0 0.25 0"/>
      <feBlend in2="BackgroundImageFix" result="effect1_dropShadow_11_292"/>
      <feBlend in="SourceGraphic" in2="effect1_dropShadow_11_292" result="shape"/>
    </filter>
    <filter id="c" width="45.5" height="41.75" x="3.75" y="4.625" color-interpolation-filters="sRGB" filterUnits="userSpaceOnUse">
      <feFlood flood-opacity="0" result="BackgroundImageFix"/>
      <feColorMatrix in="SourceAlpha" result="hardAlpha" values="0 0 0 0 0 0 0 0 0 0 0 0 0 0 0 0 0 0 127 0"/>
      <feOffset dx="3" dy="3"/>
      <feGaussianBlur stdDeviation="2"/>
      <feComposite in2="hardAlpha" operator="out"/>
      <feColorMatrix values="0 0 0 0 0.752941 0 0 0 0 0.752941 0 0 0 0 0.752941 0 0 0 0.25 0"/>
      <feBlend in2="BackgroundImageFix" mode="color-dodge" result="effect1_dropShadow_11_292"/>
      <feBlend in="SourceGraphic" in2="effect1_dropShadow_11_292" result="shape"/>
    </filter>
    <clipPath id="a">
      <path fill="#fff" d="M0 0h45v45H0z" transform="translate(1)"/>
    </clipPath>
  </defs>
</svg>
